HIERARCHY
ROOT joint_Root
{
  OFFSET 0 0 0
  CHANNELS 6 Xposition Yposition Zposition Zrotation Xrotation Yrotation
  JOINT Hips
  {
    OFFSET 0.847027 93.984 -452.225
    CHANNELS 6 Xposition Yposition Zposition Zrotation Xrotation Yrotation
    JOINT Spine
    {
      OFFSET 15.7357 0 0
      CHANNELS 6 Xposition Yposition Zposition Zrotation Xrotation Yrotation
      JOINT Chest
      {
        OFFSET 8.98455 -0.406207 0
        CHANNELS 6 Xposition Yposition Zposition Zrotation Xrotation Yrotation
        JOINT Neck
        {
          OFFSET 16.3773 0 0
          CHANNELS 6 Xposition Yposition Zposition Zrotation Xrotation Yrotation
          JOINT Head
          {
            OFFSET 6.45672 0 0
            CHANNELS 6 Xposition Yposition Zposition Zrotation Xrotation Yrotation
            End Site
            {
              OFFSET 0 0 0
            }
          }
        }
        JOINT Shoulder_L
        {
          OFFSET 12.9942 -0.242716 4.98039
          CHANNELS 6 Xposition Yposition Zposition Zrotation Xrotation Yrotation
          JOINT UpperArm_L
          {
            OFFSET 5.34809 0 0
            CHANNELS 6 Xposition Yposition Zposition Zrotation Xrotation Yrotation
            JOINT LowerArm_L
            {
              OFFSET 24.3286 1.87007e-05 0
              CHANNELS 6 Xposition Yposition Zposition Zrotation Xrotation Yrotation
              JOINT Hand_L
              {
                OFFSET 22.2916 0 0
                CHANNELS 6 Xposition Yposition Zposition Zrotation Xrotation Yrotation
                End Site
                {
                  OFFSET 0 0 0
                }
              }
            }
          }
        }
        JOINT Shoulder_R
        {
          OFFSET 12.9945 -0.242716 -4.98039
          CHANNELS 6 Xposition Yposition Zposition Zrotation Xrotation Yrotation
          JOINT UpperArm_R
          {
            OFFSET -5.34813 0 0
            CHANNELS 6 Xposition Yposition Zposition Zrotation Xrotation Yrotation
            JOINT LowerArm_R
            {
              OFFSET -24.3289 0.000322201 0
              CHANNELS 6 Xposition Yposition Zposition Zrotation Xrotation Yrotation
              JOINT Hand_R
              {
                OFFSET -22.2915 -0.000108084 0
                CHANNELS 6 Xposition Yposition Zposition Zrotation Xrotation Yrotation
                End Site
                {
                  OFFSET 0 0 0
                }
              }
            }
          }
        }
      }
    }
    JOINT UpperLeg_L
    {
      OFFSET -2.19248 -6.46944 0
      CHANNELS 6 Xposition Yposition Zposition Zrotation Xrotation Yrotation
      JOINT LowerLeg_L
      {
        OFFSET 39.0811 0 -1.23785e-05
        CHANNELS 6 Xposition Yposition Zposition Zrotation Xrotation Yrotation
        JOINT Foot_L
        {
          OFFSET 40.9854 0 -1.26872e-05
          CHANNELS 6 Xposition Yposition Zposition Zrotation Xrotation Yrotation
          JOINT Toes_L
          {
            OFFSET 11.7543 0 0
            CHANNELS 6 Xposition Yposition Zposition Zrotation Xrotation Yrotation
            End Site
            {
              OFFSET 0 0 0
            }
          }
        }
      }
    }
    JOINT UpperLeg_R
    {
      OFFSET -2.19251 6.46944 0
      CHANNELS 6 Xposition Yposition Zposition Zrotation Xrotation Yrotation
      JOINT LowerLeg_R
      {
        OFFSET -39.0811 -0.00228153 -0.0401928
        CHANNELS 6 Xposition Yposition Zposition Zrotation Xrotation Yrotation
        JOINT Foot_R
        {
          OFFSET -40.9854 0 0
          CHANNELS 6 Xposition Yposition Zposition Zrotation Xrotation Yrotation
          JOINT Toes_R
          {
            OFFSET -11.7543 0 0
            CHANNELS 6 Xposition Yposition Zposition Zrotation Xrotation Yrotation
            End Site
            {
              OFFSET 0 0 0
            }
          }
        }
      }
    }
  }
}
MOTION
Frames:	8
Frame Time:	0.0333333
0 0 0 0 0 -0 -0.553173 91.9383 -377.681 88.9437 -0.903417 1.36676 15.7357 5.1072e-06 -5.51765e-07 93.0824 84.3745 -91.1372 8.98455 -0.406207 -4.3199e-07 3.46278 0.531279 3.87014 16.3773 -1.3905e-06 -6.99897e-07 -3.98559 -2.07893 0.500116 6.45672 -1.25837e-06 -1.02172e-07 1.9458 -0.87569 -3.26609 12.9942 -0.242716 4.98039 -90.4925 2.36643 -93.2381 5.34809 -7.22636e-06 -6.2814e-07 -69.8751 12.0026 10.9961 24.3286 1.87007e-05 4.90207e-06 -0.377786 -0.53264 -35.3863 22.2916 -9.88446e-07 4.63217e-06 10.3624 5.58778 -10.6385 12.9945 -0.242716 -4.98039 88.7818 5.29072 -92.014 -5.34813 -1.25947e-06 -3.79883e-06 -63.5011 10.0564 6.1315 -24.3289 0.000322201 -8.65921e-06 2.29072 2.85375 -38.7922 -22.2915 -0.000108084 -4.47941e-06 3.66988 5.55537 -8.96091 -2.19248 -6.46944 -1.22533e-07 -175.364 -5.06903 -19.5216 39.0811 -6.73843e-06 -1.23785e-05 0.229156 -0.0745729 72.313 40.9854 -6.48686e-06 -1.26872e-05 -5.90408 0.245122 -43.4307 11.7543 -2.30145e-07 3.05095e-06 0.161321 -0.272686 -21.339 -2.19251 6.46944 -1.45247e-06 -178.583 14.3923 171.09 -39.0811 -0.00228153 -0.0401928 0.0354064 -0.0507415 24.6793 -40.9854 7.72618e-06 5.99936e-06 0.960857 -2.2803 -64.9027 -11.7543 -5.6619e-06 -5.58687e-06 0.0549347 -0.0617263 -17.1816 
0 0 0 0 0 -0 -0.623553 92.3739 -373.896 90.6147 -2.71798 1.1344 15.7357 5.1072e-06 -5.51765e-07 98.6338 84.5289 -97.7817 8.98455 -0.406207 -4.3199e-07 3.04183 1.60582 1.65998 16.3773 -1.3905e-06 -6.99897e-07 -3.41207 -1.92429 0.392261 6.45672 -1.25837e-06 -1.02172e-07 2.9343 -1.53547 -2.82007 12.9942 -0.242716 4.98039 -90.4608 1.94308 -91.6562 5.34809 -7.22636e-06 -6.2814e-07 -70.0695 9.98054 14.0158 24.3286 1.87007e-05 4.90207e-06 -1.05744 -1.56801 -34.0037 22.2916 -9.88446e-07 4.63217e-06 9.74023 5.59037 -10.782 12.9945 -0.242716 -4.98039 88.991 4.62058 -92.6687 -5.34813 -1.25947e-06 -3.79883e-06 -63.0787 11.9343 1.47267 -24.3289 0.000322201 -8.65921e-06 2.5215 3.04346 -39.6845 -22.2915 -0.000108084 -4.47941e-06 3.79862 5.55117 -8.76042 -2.19248 -6.46944 -1.22533e-07 -177.722 -7.22179 -23.7276 39.0811 -6.73843e-06 -1.23785e-05 0.195334 -0.0753605 69.5089 40.9854 -6.48686e-06 -1.26872e-05 -5.40296 1.2696 -47.5627 11.7543 -2.30145e-07 3.05095e-06 0.161514 -0.273064 -21.3456 -2.19251 6.46944 -1.45247e-06 178.871 14.7936 175.22 -39.0811 -0.00228153 -0.0401928 0.0093223 0.0272776 21.4024 -40.9854 7.72618e-06 5.99936e-06 0.625145 -0.0174293 -65.8287 -11.7543 -5.6619e-06 -5.58687e-06 0.0526936 -0.05918 -17.1566 
0 0 0 0 0 -0 -0.7478 92.4072 -370.369 91.5347 -4.35035 0.5921 15.7357 5.1072e-06 -5.51765e-07 103.038 84.6495 -102.953 8.98455 -0.406207 -4.3199e-07 2.65944 2.40825 0.113571 16.3773 -1.3905e-06 -6.99897e-07 -2.96164 -1.63175 0.07566 6.45672 -1.25837e-06 -1.02172e-07 3.28895 -2.28073 -2.40997 12.9942 -0.242716 4.98039 -90.5456 2.02936 -89.9524 5.34809 -7.22636e-06 -6.2814e-07 -69.3927 8.49818 16.8521 24.3286 1.87007e-05 4.90208e-06 -1.0892 -1.64045 -33.5915 22.2916 -9.88446e-07 4.63217e-06 9.67988 5.59377 -10.9773 12.9945 -0.242716 -4.98039 89.0938 4.3258 -93.1576 -5.34813 -1.25947e-06 -3.79883e-06 -61.2891 13.7389 -4.00569 -24.3289 0.000322201 -8.65921e-06 2.72542 3.26408 -39.9077 -22.2915 -0.000108084 -4.47941e-06 3.86235 5.54224 -8.3449 -2.19248 -6.46944 -1.22533e-07 -179.121 -8.79612 -27.4548 39.0811 -6.73843e-06 -1.23785e-05 0.160708 -0.0823461 63.9482 40.9854 -6.48686e-06 -1.26872e-05 -5.28581 1.96985 -51.4034 11.7543 -2.30145e-07 3.05095e-06 0.141268 -0.235817 -20.7086 -2.19251 6.46944 -1.45247e-06 177.165 14.9698 178.281 -39.0811 -0.00228153 -0.0401928 -0.00901348 0.0747428 19.1148 -40.9854 7.72618e-06 5.99936e-06 0.237824 1.83516 -67.0407 -11.7543 -5.6619e-06 -5.58687e-06 0.000168734 -0.000186383 -16.5757 
0 0 0 0 0 -0 -0.912724 92.1575 -366.994 91.6567 -5.95015 -0.0674234 15.7357 5.1072e-06 -5.51764e-07 106.673 84.658 -107.006 8.98455 -0.406207 -4.3199e-07 2.48127 3.0782 -0.731937 16.3773 -1.3905e-06 -6.99897e-07 -2.65661 -1.28936 -0.15778 6.45672 -1.25837e-06 -1.02172e-07 3.00843 -2.84999 -2.29355 12.9942 -0.242716 4.98039 -90.8018 2.69746 -88.443 5.34809 -7.22636e-06 -6.2814e-07 -68.1886 6.98686 19.4096 24.3286 1.87007e-05 4.90208e-06 -1.18792 -1.80821 -33.3125 22.2916 -9.88446e-07 4.63217e-06 9.51814 5.60001 -11.3433 12.9945 -0.242716 -4.98039 89.0753 4.675 -93.7987 -5.34813 -1.25947e-06 -3.79883e-06 -58.045 15.05 -9.63437 -24.3289 0.000322201 -8.65921e-06 2.81893 3.39368 -39.7643 -22.2915 -0.000108084 -4.47941e-06 4.09119 5.53505 -8.01906 -2.19248 -6.46944 -1.22533e-07 -179.563 -10.0103 -29.8967 39.0811 -6.73843e-06 -1.23785e-05 0.117153 -0.087964 55.0698 40.9854 -6.48686e-06 -1.26872e-05 -4.57615 1.79395 -54.1109 11.7543 -2.30145e-07 3.05095e-06 0.15198 -0.255419 -21.0443 -2.19251 6.46944 -1.45247e-06 176.331 14.589 -179.078 -39.0811 -0.00228153 -0.0401928 -0.0251801 0.131464 17.2162 -40.9854 7.72618e-06 5.99936e-06 -0.217296 3.08422 -68.335 -11.7543 -5.6619e-06 -5.58687e-06 0.00571713 -0.00635904 -16.6366 
0 0 0 0 0 -0 -1.0658 91.644 -363.593 91.2412 -7.22071 -0.591429 15.7357 5.1072e-06 -5.51764e-07 108.789 84.5115 -109.284 8.98455 -0.406207 -4.3199e-07 2.64614 3.55453 -1.07188 16.3773 -1.3905e-06 -6.99897e-07 -2.51603 -0.849529 -0.337628 6.45672 -1.25837e-06 -1.02172e-07 2.37066 -3.28324 -2.12332 12.9942 -0.242716 4.98039 -91.0539 3.28284 -87.1915 5.34809 -7.22636e-06 -6.2814e-07 -67.311 5.46004 20.9984 24.3286 1.87007e-05 4.90208e-06 -1.56475 -2.48291 -32.2356 22.2916 -9.88446e-07 4.63217e-06 9.29171 5.60362 -11.5601 12.9945 -0.242716 -4.98039 89.0318 5.21996 -94.4766 -5.34813 -1.25947e-06 -3.79883e-06 -54.2104 15.6504 -14.9846 -24.3289 0.000322201 -8.65921e-06 2.72355 3.33676 -39.271 -22.2915 -0.000108084 -4.47941e-06 4.15496 5.53156 -7.86479 -2.19248 -6.46944 -1.22534e-07 -179.018 -10.4036 -30.0381 39.0811 -6.73843e-06 -1.23785e-05 0.0784871 -0.096326 42.2051 40.9854 -6.48686e-06 -1.26872e-05 -5.22133 0.815586 -55.4763 11.7543 -2.30145e-07 3.05095e-06 0.142339 -0.237779 -20.7423 -2.19251 6.46944 -1.45247e-06 175.859 14.5016 -176.325 -39.0811 -0.00228153 -0.0401928 -0.0387812 0.18479 15.6486 -40.9854 7.72618e-06 5.99936e-06 -0.709213 4.36863 -69.8353 -11.7543 -5.6619e-06 -5.58687e-06 0.035888 -0.0401785 -16.97 
0 0 0 0 0 -0 -1.19304 90.7458 -360.056 90.4504 -8.11183 -0.884233 15.7357 5.1072e-06 -5.51765e-07 109.991 84.2775 -110.45 8.98455 -0.406207 -4.3199e-07 3.01157 3.9278 -1.02089 16.3773 -1.3905e-06 -6.99897e-07 -2.27821 -0.517858 -0.387358 6.45672 -1.25837e-06 -1.02172e-07 1.69937 -3.45978 -2.02561 12.9942 -0.242716 4.98039 -91.1724 3.52391 -86.5848 5.34809 -7.22636e-06 -6.2814e-07 -67.0479 3.47127 21.9572 24.3286 1.87007e-05 4.90208e-06 -1.22076 -2.07831 -30.4345 22.2916 -9.88446e-07 4.63217e-06 9.59276 5.60539 -11.6696 12.9945 -0.242716 -4.98039 89.0751 5.35828 -95.1921 -5.34813 -1.25947e-06 -3.79883e-06 -51.2097 15.3139 -19.2756 -24.3289 0.000322201 -8.65921e-06 3.0713 3.83359 -38.76 -22.2915 -0.000108084 -4.47941e-06 4.4691 5.52286 -7.4847 -2.19248 -6.46944 -1.22533e-07 -177.332 -9.10089 -28.0933 39.0811 -6.73843e-06 -1.23785e-05 0.0391391 -0.0960977 26.2895 40.9854 -6.48686e-06 -1.26872e-05 -5.60312 -0.0584958 -54.4156 11.7543 -2.30145e-07 3.05095e-06 0.136646 -0.227469 -20.5653 -2.19251 6.46944 -1.45247e-06 175.644 14.2222 -173.796 -39.0811 -0.00228153 -0.0401928 -0.0520075 0.235123 15.4845 -40.9854 7.72618e-06 5.99936e-06 -1.28492 5.17871 -72.1913 -11.7543 -5.6619e-06 -5.58687e-06 0.0647232 -0.0728633 -17.2906 
0 0 0 0 0 -0 -1.20035 89.6713 -356.325 89.7646 -8.89035 -1.38548 15.7357 5.1072e-06 -5.51764e-07 110.907 84.0558 -111.368 8.98455 -0.406207 -4.3199e-07 3.36485 4.25527 -1.04485 16.3773 -1.3905e-06 -6.99897e-07 -2.1425 -0.264788 -0.301896 6.45672 -1.25837e-06 -1.02172e-07 0.914709 -3.40112 -1.91262 12.9942 -0.242716 4.98039 -91.3786 4.10353 -86.413 5.34809 -7.22636e-06 -6.2814e-07 -66.6121 1.92994 22.5172 24.3286 1.87007e-05 4.90208e-06 -1.13276 -2.073 -28.6685 22.2916 -9.88446e-07 4.63217e-06 9.80227 5.60735 -11.7922 12.9945 -0.242716 -4.98039 89.0901 5.76141 -96.0095 -5.34813 -1.25947e-06 -3.79883e-06 -48.7314 14.3209 -22.2273 -24.3289 0.000322201 -8.65921e-06 3.3458 4.20831 -38.5499 -22.2915 -0.000108084 -4.47941e-06 4.79838 5.52111 -7.40952 -2.19248 -6.46944 -1.22533e-07 -174.898 -5.86627 -26.1606 39.0811 -6.73843e-06 -1.23785e-05 0.0109557 -0.0789577 11.6979 40.9854 -6.48686e-06 -1.26872e-05 -4.50287 -0.641491 -52.797 11.7543 -2.30145e-07 3.05095e-06 0.134462 -0.223526 -20.4976 -2.19251 6.46944 -1.45247e-06 175.227 13.8149 -171.081 -39.0811 -0.00228153 -0.0401928 -0.046914 0.223121 14.8471 -40.9854 7.72618e-06 5.99936e-06 -2.03788 5.91842 -74.4399 -11.7543 -5.6619e-06 -5.58687e-06 0.163681 -0.187934 -18.4068 
0 0 0 0 0 -0 -0.968023 88.5911 -352.064 89.1987 -10.2015 -1.89868 15.7357 5.1072e-06 -5.51764e-07 112.699 83.8633 -113.262 8.98455 -0.406207 -4.3199e-07 3.59073 4.75079 -1.27408 16.3773 -1.3905e-06 -6.99897e-07 -1.96682 0.191091 -0.0889817 6.45672 -1.25837e-06 -1.02172e-07 0.302963 -3.22604 -1.51476 12.9942 -0.242716 4.98039 -91.7226 5.01185 -86.0047 5.34809 -7.22636e-06 -6.2814e-07 -65.9325 1.54952 22.7288 24.3286 1.87007e-05 4.90208e-06 -1.27355 -2.49824 -27.0235 22.2916 -9.88446e-07 4.63217e-06 9.84063 5.60866 -11.8747 12.9945 -0.242716 -4.98039 89.0956 6.60653 -97.1848 -5.34813 -1.25947e-06 -3.79883e-06 -46.7663 13.3798 -23.4045 -24.3289 0.000322201 -8.65921e-06 3.16946 3.93326 -38.9233 -22.2915 -0.000108084 -4.47941e-06 5.10908 5.51722 -7.24381 -2.19248 -6.46944 -1.22533e-07 -173.197 -5.05782 -26.8257 39.0811 -6.73843e-06 -1.23785e-05 0.00386046 -0.0530069 6.50858 40.9854 -6.48686e-06 -1.26872e-05 -6.30612 -1.07088 -50.6709 11.7543 -2.30145e-07 3.05095e-06 0.135555 -0.225521 -20.5318 -2.19251 6.46944 -1.45247e-06 174.566 12.6997 -169.898 -39.0811 -0.00228153 -0.0401928 -0.00325518 0.0578475 17.0198 -40.9854 7.72618e-06 5.99936e-06 -1.56816 6.30708 -75.7229 -11.7543 -5.6619e-06 -5.58687e-06 0.318561 -0.377585 -20.2069 
